<svg xmlns="http://www.w3.org/2000/svg" xmlns:xlink="http://www.w3.org/1999/xlink" viewBox="0 0 103.078 30" fill="#fff" fill-rule="evenodd" stroke="#000" stroke-linecap="round" stroke-linejoin="round"><use xlink:href="#I" x=".5" y=".5"/><defs><linearGradient x1="-82.66%" y1="-92.82%" x2="103.77%" y2="106.04%" id="A"><stop stop-color="#f9a03c" offset="0%"/><stop stop-color="#f7974e" offset="100%"/></linearGradient><linearGradient x1="-258.92%" y1="-249.06%" x2="97.62%" y2="98.77%" id="B"><stop stop-color="#f9a03c" offset="0%"/><stop stop-color="#f7974e" offset="100%"/></linearGradient><linearGradient x1="-223.16%" y1="-261.97%" x2="94.03%" y2="101.69%" id="C"><stop stop-color="#f9a03c" offset="0%"/><stop stop-color="#f7974e" offset="100%"/></linearGradient><linearGradient x1="11.34%" y1="-1.82%" x2="82.50%" y2="92.11%" id="D"><stop stop-color="#f26d58" offset="0%"/><stop stop-color="#f9a03c" offset="100%"/></linearGradient><linearGradient x1="15.84%" y1="3.86%" x2="120.13%" y2="72.38%" id="E"><stop stop-color="#b84e51" offset="0%"/><stop stop-color="#f68e48" offset="100%"/></linearGradient><linearGradient x1="46.98%" y1="23.48%" x2="51.88%" y2="147.40%" id="F"><stop stop-color="#f9a03c" offset="0%"/><stop stop-color="#f7974e" offset="100%"/></linearGradient><path id="G" d="M52.092 12.263h-.955v-.608q-.116.087-.347.245-.215.154-.42.245-.24.118-.55.194-.312.08-.73.08-.77 0-1.306-.51-.536-.51-.536-1.303 0-.647.277-1.047.28-.405.81-.633.52-.23 1.252-.312.73-.08 1.57-.123v-.148q0-.327-.118-.54-.112-.215-.327-.338-.205-.118-.5-.158-.285-.04-.598-.04-.378 0-.844.102-.465.097-.96.285h-.06v-.976q.28-.076.813-.17.532-.093 1.047-.093.6 0 1.047.102.462.097.777.338.32.235.5.608.17.373.17.925zm-.955-1.405V9.28q-.44.025-1.037.076-.593.05-.94.148-.414.118-.67.368-.254.245-.254.68 0 .5.296.74.296.245.904.245.505 0 .925-.194.42-.2.777-.462z"/><path id="H" d="M95.446 9.51h-4.205q0 .526.158.92.158.39.435.638.266.245.628.368.368.123.807.123.583 0 1.17-.23.593-.235.844-.46h.05v1.047q-.486.205-.99.342-.505.14-1.064.14-1.42 0-2.217-.766-.81-.77-.81-2.197 0-1.387.76-2.222.766-.81 2.012-.81 1.156 0 1.778.674.628.674.628 1.916zm-.925-.735q-.005-.756-.382-1.17-.373-.414-1.14-.414-.77 0-1.23.454-.454.454-.516 1.13z"/></defs><symbol id="I" overflow="visible"><g stroke="none" fill-rule="nonzero"><path d="M30.367 20.872l.03-.4c.01-.16-9.574-9.252-9.574-9.252h-.228s9.714 10.246 9.773 9.653z" fill="url(#A)"/><path d="M9.92 17.717l-.038.084-.042.087c-.305.637 4.277 5.117 4.645 4.573l.05-.073.056-.083c.295-.447-4.54-4.876-4.67-4.585z" fill="url(#B)"/><path d="M16.396 24.017c-.012.03-.105.184-.19.267-.014.03 4.473 4.48 4.473 4.48h.404c0 0-4.212-4.558-4.688-4.746z" fill="url(#C)"/><path d="M30.405 20.4c-.2 4.652-4.06 8.372-8.76 8.372h-.636l-4.696-4.626c.386-.545.745-1.11 1.065-1.698h4.267a2.45 2.45 0 0 0 2.448-2.448 2.45 2.45 0 0 0-2.448-2.448H19.12a16.86 16.86 0 0 0 .298-3.138 16.79 16.79 0 0 0-.306-3.186h1.568l9.698 9.557a10.57 10.57 0 0 0 .028-.385zM2.55 0H0v6.324h2.55c4.456 0 8.082 3.625 8.082 8.08.001 1.173-.256 2.333-.75 3.396l4.654 4.588a14.32 14.32 0 0 0 2.422-7.982C16.958 6.462 10.495 0 2.55 0z" fill="url(#D)"/><path d="M21.643 0h-10.33a16.98 16.98 0 0 1 6.037 6.324h4.295a2.45 2.45 0 0 1 2.448 2.448 2.45 2.45 0 0 1-2.448 2.447h-.965l9.698 9.557.037-.785c0-2.132-.765-4.088-2.035-5.6 1.27-1.52 2.035-3.477 2.035-5.61A8.78 8.78 0 0 0 21.643 0z" fill="url(#E)"/><path d="M21.008 28.763h-9.62c1.937-1.196 3.61-2.775 4.925-4.626zm-6.472-6.376L9.882 17.8c-1.286 2.763-4.088 4.685-7.33 4.685H0v6.323h2.55c4.992 0 9.4-2.554 11.985-6.422z" fill="url(#F)"/><g fill="#4f4f4f"><path d="M46.09 8.467q0 1.037-.454 1.88-.462.844-1.2 1.306-.52.32-1.164.465-.638.143-1.686.143h-1.92V4.655h1.9q1.113 0 1.77.162.66.158 1.113.44.777.486 1.2 1.293.435.807.435 1.916zm-1.058-.015q0-.894-.312-1.506-.312-.613-.93-.965-.462-.254-.955-.353-.505-.102-1.2-.102h-.95v5.87h.95q.73 0 1.272-.108.547-.108 1-.4.578-.363.847-.955.285-.593.285-1.48z"/><use xlink:href="#G"/><path d="M56.913 12.21q-.27.072-.593.118-.317.046-.578.046-.874 0-1.33-.47-.454-.47-.454-1.506V7.363h-.647v-.807h.647v-1.64h.96v1.64H56.9v.807h-1.982v2.6q0 .462.02.694.02.25.143.47.112.205.306.3.2.092.6.092.235 0 .5-.066.254-.072.368-.118h.05z"/><use xlink:href="#G" x="10.422"/><path d="M67.398 9.397h-3.19v-.925h3.187zm8.24-.93q0 1.037-.454 1.88-.463.844-1.2 1.306-.52.32-1.164.465-.638.143-1.686.143h-1.92V4.655h1.896q1.113 0 1.77.162.66.158 1.113.44.777.486 1.2 1.293.435.807.435 1.916zM74.58 8.45q0-.894-.312-1.506-.312-.613-.93-.965-.463-.254-.955-.353-.505-.102-1.2-.102h-.95v5.87h.95q.73 0 1.272-.108.547-.107 1-.4.578-.363.847-.955.286-.593.286-1.48zm6.185-.85h-.05q-.215-.05-.42-.072-.2-.025-.462-.025-.444 0-.858.2-.414.194-.81.505v4.05h-.96V6.554h.96v.844q.572-.46 1.006-.647.44-.194.894-.194.25 0 .363.015.112.012.338.046zm1.946-2h-1.08v-.997h1.083zm-.06 6.66h-.96V6.558h.96zm6.846-5.708l-2.31 5.707h-.965L83.93 6.556h1.04l1.77 4.54 1.753-4.54z"/><use xlink:href="#H"/><path d="M101.675 12.262h-.96V9.025q0-.393-.046-.735-.046-.347-.17-.54-.116-.215-.368-.317-.24-.107-.624-.107-.393 0-.8.194-.428.194-.8.497v4.26h-.96V6.57h.96v.634q.462-.373.93-.583.48-.208.986-.208.925 0 1.4.557.485.557.485 1.603zm-55.585 8q0 1.037-.454 1.88-.462.844-1.2 1.306-.52.32-1.164.465-.638.143-1.686.143h-1.92V16.45h1.9q1.113 0 1.77.162.66.158 1.113.44.777.486 1.2 1.293.435.807.435 1.916zm-1.058-.015q0-.894-.312-1.506-.312-.613-.93-.965-.462-.254-.955-.353-.505-.102-1.2-.102h-.95v5.87h.95q.73 0 1.272-.107.547-.108 1-.4.578-.363.847-.955.285-.593.285-1.48zm7.488.948q0 1.394-.717 2.2-.717.8-1.916.8-1.2 0-1.926-.807-.7-.807-.7-2.2 0-1.394.7-2.2.717-.813 1.926-.813 1.2 0 1.916.813.717.807.717 2.2zm-1 0q0-1.1-.435-1.645Q50.66 19 49.9 19q-.782 0-1.216.54-.428.536-.428 1.645 0 1.073.435 1.62.435.552 1.2.552.767 0 1.2-.547.44-.552.44-1.635zm6.702 2.494q-.48.23-.925.347-.428.116-.925.116-.618 0-1.133-.18-.516-.185-.883-.552-.373-.368-.578-.93-.205-.562-.205-1.313 0-1.387.767-2.197.77-.8 2.035-.8.5 0 .96.14.462.14.867.338v1.067h-.05q-.44-.342-.9-.526-.465-.185-.9-.185-.817 0-1.292.55-.47.547-.47 1.6 0 1.032.46 1.588.465.552 1.303.552.3 0 .593-.076.3-.076.54-.2.208-.108.393-.224.185-.123.3-.208h.05zm5.968.347h-.96v-.633q-.486.38-.93.587-.444.205-.98.205-.9 0-1.387-.547-.5-.552-.5-1.614V18.33h.96v3.237q0 .435.04.746.04.306.173.526.14.224.347.327.23.102.638.102.373 0 .813-.194.444-.194.828-.497v-4.26h.96zm10.218.012h-.96V20.8q0-.368-.035-.7-.03-.342-.14-.547-.118-.23-.338-.332-.23-.112-.633-.112-.405 0-.807.205-.405.2-.807.5.015.118.025.277.012.154.012.306v3.653h-.96v-3.237q0-.378-.035-.717-.03-.342-.14-.547-.118-.23-.338-.327-.23-.112-.634-.112-.393 0-.792.194-.393.194-.786.497v4.26h-.96v-5.708h.96V19q.462-.373.894-.583.462-.208.955-.208.583 0 .986.245.408.245.608.68.583-.5 1.064-.694.48-.23 1.027-.23.94 0 1.384.572.462.578.462 1.588z"/><use xlink:href="#H" x="-14.406" y="11.784"/><path d="M87.27 24.046h-.96V20.8q0-.393-.046-.735-.046-.347-.17-.54-.116-.215-.368-.317-.24-.108-.624-.108-.393 0-.8.194-.428.194-.8.497v4.26h-.96v-5.706h.96v.634q.462-.373.93-.583.48-.208.986-.208.925 0 1.4.557.485.557.485 1.603zm4.812-.05q-.27.072-.593.118-.317.046-.578.046-.874 0-1.33-.47-.454-.47-.454-1.506V19.15h-.647v-.807h.647V16.7h.96v1.64h1.98v.807h-1.98v2.6q0 .462.02.694.02.25.143.47.112.205.306.3.2.093.6.093.235 0 .5-.066.254-.072.368-.118h.05zm5.24-1.595q0 .782-.647 1.272-.644.5-1.762.5-.633 0-1.164-.148-.526-.154-.883-.332v-1.078h.05q.454.342 1.012.547.557.2 1.068.2.633 0 1-.205.347-.205.347-.644 0-.338-.194-.5-.194-.173-.746-.296-.205-.046-.536-.108-.327-.06-.598-.133-.752-.2-1.067-.583-.312-.4-.312-.95 0-.353.143-.664.148-.312.444-.557.285-.24.725-.378.444-.143 1-.143.5 0 1.032.116.526.123.874.3v1.027h-.05q-.368-.27-.894-.454-.526-.2-1.032-.2-.526 0-.9.205-.363.2-.363.598 0 .353.23.532.215.18.694.3.266.06.593.123.332.06.55.112.67.154 1.032.526.363.378.363 1z"/></g></g></symbol></svg>